<?xml version="1.0" encoding="UTF-8"?>
<svg width="700pt" height="700pt" version="1.1" viewBox="0 0 700 700" xmlns="http://www.w3.org/2000/svg">
 <g>
  <path d="m414.17 64.867c-51.137-17.113-106.55-16.449-157.27 1.8828-50.711 18.328-93.742 53.25-122.12 99.105-28.375 45.852-40.43 99.945-34.211 153.51s30.352 103.45 68.48 141.58c38.129 38.129 88.02 62.262 141.58 68.48s107.66-5.8359 153.51-34.211c45.855-28.375 80.777-71.406 99.105-122.12 18.332-50.711 18.996-106.13 1.8828-157.27-7.6055 7.4531-17.82 11.641-28.465 11.668h-93.336c-5.4531 0-10.852-1.1133-15.863-3.2656-9.8867-3.9766-17.727-11.812-21.699-21.703-2.1562-5.0117-3.2695-10.41-3.2695-15.863v-93.336c0.027344-10.645 4.2148-20.859 11.668-28.465zm-75.836 209.3c18.531-0.058594 35.957 8.7969 46.836 23.793 10.875 15 13.879 34.316 8.0664 51.91s-19.73 31.32-37.402 36.891v15.738c0 6.2539-3.3359 12.031-8.75 15.156-5.4141 3.125-12.086 3.125-17.5 0-5.4141-3.125-8.75-8.9023-8.75-15.156v-15.738c-11.656-3.6836-21.844-10.973-29.086-20.82-7.2461-9.8477-11.176-21.742-11.223-33.965 0-6.2539 3.3359-12.031 8.75-15.156 5.4141-3.125 12.086-3.125 17.5 0 5.4141 3.125 8.75 8.9023 8.75 15.156 0 6.0469 2.4023 11.852 6.6797 16.129 4.2773 4.2773 10.082 6.6797 16.129 6.6797 6.0508 0 11.852-2.4023 16.129-6.6797 4.2773-4.2773 6.6836-10.082 6.6836-16.129 0-6.0508-2.4062-11.852-6.6836-16.129-4.2773-4.2773-10.078-6.6797-16.129-6.6797-18.527 0.054687-35.953-8.7969-46.832-23.797s-13.879-34.316-8.0664-51.91c5.8086-17.594 19.727-31.32 37.398-36.891v-15.738c0-6.25 3.3359-12.027 8.75-15.152 5.4141-3.1289 12.086-3.1289 17.5 0 5.4141 3.125 8.75 8.9023 8.75 15.152v15.738c11.66 3.6836 21.844 10.973 29.09 20.82s11.176 21.742 11.223 33.965c0 6.2539-3.3359 12.031-8.75 15.156-5.418 3.125-12.086 3.125-17.5 0-5.418-3.125-8.75-8.9023-8.75-15.156-0.003906-6.0469-2.4062-11.848-6.6836-16.125-4.2773-4.2812-10.078-6.6836-16.129-6.6836-6.0469 0-11.852 2.4062-16.129 6.6836-4.2773 4.2773-6.6797 10.078-6.6797 16.129 0 6.0469 2.4023 11.848 6.6797 16.125s10.082 6.6836 16.129 6.6836z"/>
  <path d="m570.96 34.293-110.13 110.13v-51.09c0-6.25-3.3359-12.027-8.75-15.152-5.4141-3.1289-12.086-3.1289-17.5 0-5.4141 3.125-8.75 8.9023-8.75 15.152v93.336c0.019531 4.6328 1.8672 9.0742 5.1484 12.352 3.2773 3.2812 7.7188 5.1289 12.352 5.1484h93.336c6.25 0 12.027-3.3359 15.152-8.75 3.1289-5.4141 3.1289-12.086 0-17.5-3.125-5.4141-8.9023-8.75-15.152-8.75h-51.09l110.12-110.13h0.003906c4.3945-4.4258 6.0977-10.855 4.4766-16.875-1.6211-6.0234-6.3242-10.727-12.348-12.348-6.0195-1.6211-12.449 0.082032-16.875 4.4766z"/>
 </g>
</svg>
