<?xml version="1.0" encoding="UTF-8"?>
<svg width="700pt" height="700pt" version="1.1" viewBox="0 0 700 700" xmlns="http://www.w3.org/2000/svg">
 <g>
  <path d="m383.25 383.25h-87.5c-10.5 0-17.5-7-17.5-17.5s7-17.5 17.5-17.5h87.5c10.5 0 17.5 7 17.5 17.5s-7 17.5-17.5 17.5z"/>
  <path d="m553 416.5h-35v-1.75-264.25c0-24.5-8.75-49-26.25-66.5-21-22.75-52.5-36.75-85.75-36.75h-176.75c-10.5-1.75-22.75 0-31.5 5.25-3.5 1.75-5.25 3.5-8.75 5.25-19.25 12.25-33.25 35-33.25 61.25v68.25c0 10.5 7 17.5 17.5 17.5h38.5v245c0 28 15.75 52.5 38.5 66.5 1.75 0 1.75 1.75 3.5 1.75h1.75c8.75 5.25 19.25 7 31.5 7h210 7c36.75-3.5 66.5-31.5 66.5-64.75v-26.25c0-10.5-7-17.5-17.5-17.5zm-341.25-246.75h-21v-50.75c0-10.5 3.5-19.25 10.5-26.25 7 7 10.5 17.5 10.5 28zm194.25-89.25c24.5 0 45.5 10.5 61.25 26.25 10.5 12.25 17.5 26.25 17.5 42v266 1.75h-185.5-5.25-5.25c-8.75 0-17.5 8.75-17.5 17.5v21c0 10.5-5.25 19.25-12.25 26.25-8.75-7-14-19.25-14-31.5v-330.75c0-14-3.5-28-10.5-38.5h171.5zm129.5 379.75c0 15.75-17.5 29.75-38.5 29.75h-199.5c7-10.5 10.5-22.75 10.5-36.75v-3.5h227.5z"/>
  <path d="m418.25 330.75h-122.5c-10.5 0-17.5-7-17.5-17.5s7-17.5 17.5-17.5h122.5c10.5 0 17.5 7 17.5 17.5s-7 17.5-17.5 17.5z"/>
  <path d="m407.75 211.75c0 21-12.25 36.75-31.5 42h-1.75-1.75v8.75c0 10.5-7 17.5-17.5 17.5s-17.5-7-17.5-17.5v-5.25c-15.75-1.75-31.5-8.75-35-26.25-1.75-8.75 3.5-19.25 14-21 8.75-1.75 15.75 3.5 19.25 10.5 5.25 1.75 19.25 1.75 31.5 0 5.25-1.75 5.25-5.25 5.25-7s0-5.25-5.25-7h-24.5-1.75-1.75-3.5c-21-3.5-35-21-35-42s12.25-38.5 31.5-43.75h1.75v-7c0-10.5 7-17.5 17.5-17.5 8.75 0 17.5 7 17.5 17.5v5.25c15.75 1.75 31.5 8.75 35 26.25 1.75 8.75-3.5 19.25-14 21-8.75 1.75-17.5-3.5-19.25-10.5-5.25-1.75-19.25-1.75-31.5 0-5.25 1.75-5.25 5.25-5.25 8.75 0 1.75 0 7 5.25 8.75h26.25 3.5c22.75 1.75 36.75 17.5 38.5 38.5z"/>
 </g>
</svg>
