<?xml version="1.0" encoding="UTF-8"?>
<svg width="700pt" height="700pt" version="1.1" viewBox="0 0 700 700" xmlns="http://www.w3.org/2000/svg">
 <g>
  <path d="m425.83 350c0 41.883-33.949 75.832-75.832 75.832s-75.832-33.949-75.832-75.832 33.949-75.832 75.832-75.832 75.832 33.949 75.832 75.832"/>
  <path d="m597.1 247.1-172.9-172.9c-19.656-19.719-46.355-30.805-74.199-30.805s-54.543 11.086-74.199 30.805l-172.9 172.9c-7.4297 7.3242-10.945 17.746-9.4688 28.078 1.4727 10.332 7.7617 19.348 16.949 24.305 9.1836 4.9531 20.176 5.2578 29.621 0.81641v119.7c0 24.754 9.832 48.492 27.336 65.996 17.504 17.504 41.242 27.336 65.996 27.336h233.34c24.754 0 48.492-9.832 65.996-27.336 17.504-17.504 27.336-41.242 27.336-65.996v-119.7c9.4453 4.4414 20.438 4.1367 29.621-0.81641 9.1875-4.957 15.477-13.973 16.949-24.305 1.4766-10.332-2.0391-20.754-9.4688-28.078zm-247.1 213.73c-29.395 0-57.586-11.676-78.371-32.461s-32.461-48.977-32.461-78.371 11.676-57.586 32.461-78.371 48.977-32.461 78.371-32.461 57.586 11.676 78.371 32.461 32.461 48.977 32.461 78.371-11.676 57.586-32.461 78.371-48.977 32.461-78.371 32.461z"/>
 </g>
</svg>
