<?xml version="1.0" encoding="UTF-8"?>
<svg width="700pt" height="700pt" version="1.1" viewBox="0 0 700 700" xmlns="http://www.w3.org/2000/svg">
 <path d="m594.23 290.4c2.9414-7.7578 3.4102-16.234 1.3477-24.273-2.0664-8.0352-6.5625-15.234-12.879-20.617l-205.79-179.17c-7.4609-6.4805-17.012-10.047-26.895-10.055-9.8828-0.003906-19.434 3.5586-26.902 10.031l-205.72 179.1c-8.4453 7.2812-13.539 17.707-14.094 28.844-0.55078 11.141 3.4844 22.016 11.168 30.102 7.6836 8.082 18.344 12.66 29.496 12.672h25.203v145.83c0.011719 10.828 4.3164 21.207 11.973 28.859 7.6562 7.6562 18.035 11.961 28.859 11.977h58.332c10.828-0.015625 21.207-4.3203 28.859-11.977 7.6562-7.6523 11.961-18.031 11.977-28.859v-58.332c0.011719-11.551 4.9023-22.555 13.465-30.305 8.5859-7.8164 20.109-11.574 31.652-10.324 10.414 1.6055 19.879 6.9688 26.613 15.074 6.7305 8.1055 10.266 18.395 9.9336 28.926v54.961c0.015625 10.828 4.3203 21.207 11.977 28.859 7.6523 7.6562 18.031 11.961 28.859 11.977h58.332c10.824-0.015625 21.203-4.3203 28.859-11.977 7.6562-7.6523 11.961-18.031 11.973-28.859v-145.83h25.203c8.3359 0.042969 16.48-2.4961 23.316-7.2656 6.8398-4.7695 12.035-11.535 14.875-19.371z"/>
</svg>
