<?xml version="1.0" encoding="UTF-8"?>
<svg width="700pt" height="700pt" version="1.1" viewBox="0 0 700 700" xmlns="http://www.w3.org/2000/svg">
 <g>
  <path d="m600.83 46.668c-0.015625-4.6367-1.8672-9.0781-5.1445-12.355s-7.7188-5.1289-12.355-5.1445h-93.332c-6.2539 0-12.031 3.3359-15.156 8.75-3.125 5.4141-3.125 12.086 0 17.5 3.125 5.4141 8.9023 8.75 15.156 8.75h51.086l-110.12 110.12c-3.3008 3.2773-5.1641 7.7344-5.1719 12.387-0.007812 4.6523 1.8359 9.1172 5.125 12.406 3.2891 3.2891 7.7539 5.1328 12.406 5.125 4.6523-0.007813 9.1094-1.8711 12.387-5.1719l110.12-110.12v51.086c0 6.2539 3.3359 12.031 8.75 15.156 5.4141 3.125 12.086 3.125 17.5 0 5.4141-3.125 8.75-8.9023 8.75-15.156z"/>
  <path d="m338.33 530.83c58.695 0.011719 115.34-21.566 159.16-60.621 43.816-39.059 71.734-92.863 78.441-151.18 6.707-58.309-8.2656-117.05-42.07-165.04l-61.598 61.602c-10.336 10.336-25.402 14.371-39.523 10.59-14.121-3.7852-25.148-14.812-28.934-28.934-3.7812-14.121 0.25391-29.188 10.59-39.523l61.598-61.602c-41.129-28.957-90.344-44.211-140.64-43.586-50.301 0.625-99.121 17.09-139.52 47.062-40.402 29.969-70.324 71.914-85.508 119.87-15.188 47.957-14.867 99.48 0.91406 147.24 15.785 47.762 46.227 89.332 86.996 118.8 40.77 29.461 89.793 45.32 140.09 45.316zm0-221.67v0.003907c-18.547 0.0625-35.996-8.8008-46.887-23.82-10.891-15.016-13.891-34.355-8.0703-51.969 5.8242-17.609 19.762-31.348 37.457-36.914v-15.633c0-6.25 3.3359-12.027 8.75-15.152 5.4141-3.1289 12.086-3.1289 17.5 0 5.4141 3.125 8.75 8.9023 8.75 15.152v15.633c11.691 3.6484 21.914 10.934 29.176 20.801 7.2617 9.8633 11.184 21.785 11.191 34.035 0 6.25-3.3359 12.027-8.75 15.156-5.4141 3.125-12.086 3.125-17.5 0-5.4141-3.1289-8.75-8.9062-8.75-15.156 0-6.0664-2.4102-11.883-6.6953-16.172-4.2891-4.2852-10.105-6.6953-16.172-6.6953-6.0625 0-11.879 2.4102-16.168 6.6953-4.2891 4.2891-6.6992 10.105-6.6992 16.172 0 6.0625 2.4102 11.879 6.6992 16.168 4.2891 4.2891 10.105 6.6992 16.168 6.6992 18.551-0.0625 36 8.8008 46.891 23.816 10.887 15.02 13.891 34.355 8.0664 51.969-5.8203 17.613-19.762 31.348-37.457 36.914v15.633c0 6.2539-3.3359 12.031-8.75 15.156-5.4141 3.125-12.086 3.125-17.5 0-5.4141-3.125-8.75-8.9023-8.75-15.156v-15.633c-11.691-3.6484-21.91-10.934-29.172-20.797-7.2617-9.8633-11.184-21.789-11.195-34.035 0-6.2539 3.3359-12.031 8.75-15.156 5.418-3.1289 12.086-3.1289 17.5 0 5.418 3.125 8.75 8.9023 8.75 15.156 0 6.0625 2.4102 11.879 6.6992 16.168 4.2891 4.2891 10.105 6.6953 16.168 6.6953 6.0664 0 11.883-2.4062 16.172-6.6953 4.2852-4.2891 6.6953-10.105 6.6953-16.168 0-6.0664-2.4102-11.883-6.6953-16.172-4.2891-4.2891-10.105-6.6953-16.172-6.6953z"/>
 </g>
</svg>
